<svg width="128.000000" height="93.224243" viewBox="0 0 128 93.2242" fill="none" xmlns="http://www.w3.org/2000/svg" xmlns:xlink="http://www.w3.org/1999/xlink">
	<desc>
			Created with Pixso.
	</desc>
	<defs>
		<filter id="filter_12_11_dd" x="0.000000" y="0.000000" width="128.000000" height="93.224243" filterUnits="userSpaceOnUse" color-interpolation-filters="sRGB">
			<feFlood flood-opacity="0" result="BackgroundImageFix"/>
			<feColorMatrix in="SourceAlpha" type="matrix" values="0 0 0 0 0 0 0 0 0 0 0 0 0 0 0 0 0 0 127 0"/>
			<feOffset dx="0" dy="4"/>
			<feGaussianBlur stdDeviation="1.33333"/>
			<feColorMatrix type="matrix" values="0 0 0 0 0 0 0 0 0 0 0 0 0 0 0 0 0 0 0.25 0"/>
			<feBlend mode="normal" in2="BackgroundImageFix" result="effect_dropShadow_1"/>
			<feBlend mode="normal" in="SourceGraphic" in2="effect_dropShadow_1" result="shape"/>
		</filter>
		<clipPath id="clip12_11">
			<rect id="bxs-crown" rx="20.000000" width="120.000000" height="85.224236" transform="translate(4.000000 0.000000)" fill="white"/>
		</clipPath>
	</defs>
	<g filter="url(#filter_12_11_dd)">
		<g clip-path="url(#clip12_11)">
			<path id="path" d="M97 9.88107L78.6665 27.0429L64 9.88107L49.3335 27.0429L31 9.88107L31 54.5019L97 54.5019L97 9.88107ZM38.3335 75.0961L89.6665 75.0961C91.6919 75.0961 93.4204 74.4259 94.8521 73.0855C96.2842 71.7451 97 70.127 97 68.2314L97 61.3666L31 61.3666L31 68.2314C31 70.127 31.7158 71.7451 33.1479 73.0855C34.5796 74.4259 36.3081 75.0961 38.3335 75.0961Z" fill-rule="nonzero" fill="#FEDA6A"/>
		</g>
	</g>
</svg>
