<svg width="220.000000" height="131.066345" viewBox="0 0 220 131.066" fill="none" xmlns="http://www.w3.org/2000/svg" xmlns:xlink="http://www.w3.org/1999/xlink">
	<desc>
			Created with Pixso.
	</desc>
	<defs>
		<filter id="filter_12_10_dd" x="0.162109" y="81.187439" width="219.789062" height="49.878906" filterUnits="userSpaceOnUse" color-interpolation-filters="sRGB">
			<feFlood flood-opacity="0" result="BackgroundImageFix"/>
			<feColorMatrix in="SourceAlpha" type="matrix" values="0 0 0 0 0 0 0 0 0 0 0 0 0 0 0 0 0 0 127 0"/>
			<feOffset dx="0" dy="0"/>
			<feGaussianBlur stdDeviation="5"/>
			<feColorMatrix type="matrix" values="0 0 0 0 1 0 0 0 0 0.75686 0 0 0 0 0 0 0 0 0.7 0"/>
			<feBlend mode="normal" in2="BackgroundImageFix" result="effect_dropShadow_1"/>
			<feBlend mode="normal" in="SourceGraphic" in2="effect_dropShadow_1" result="shape"/>
		</filter>
		<filter id="filter_12_11_dd" x="43.000000" y="0.000000" width="128.000000" height="93.224243" filterUnits="userSpaceOnUse" color-interpolation-filters="sRGB">
			<feFlood flood-opacity="0" result="BackgroundImageFix"/>
			<feColorMatrix in="SourceAlpha" type="matrix" values="0 0 0 0 0 0 0 0 0 0 0 0 0 0 0 0 0 0 127 0"/>
			<feOffset dx="0" dy="4"/>
			<feGaussianBlur stdDeviation="1.33333"/>
			<feColorMatrix type="matrix" values="0 0 0 0 0 0 0 0 0 0 0 0 0 0 0 0 0 0 0.25 0"/>
			<feBlend mode="normal" in2="BackgroundImageFix" result="effect_dropShadow_1"/>
			<feBlend mode="normal" in="SourceGraphic" in2="effect_dropShadow_1" result="shape"/>
		</filter>
		<clipPath id="clip12_11">
			<rect id="bxs-crown" rx="20.000000" width="120.000000" height="85.224236" transform="translate(47.000000 0.000000)" fill="white"/>
		</clipPath>
	</defs>
	<g filter="url(#filter_12_10_dd)">
		<path id="GOLDEN RUS" d="M30.8799 113.958L32.247 113.958L32.247 121.293Q30.9619 122.523 29.123 123.166Q27.291 123.809 25.247 123.809Q22.3349 123.809 19.997 122.523Q17.6591 121.238 16.3261 118.969Q15 116.699 15 113.869Q15 111.046 16.3261 108.776Q17.6591 106.507 19.997 105.222Q22.3349 103.93 25.2812 103.93Q27.4345 103.93 29.2392 104.62Q31.0439 105.304 32.3359 106.623L31.4404 107.573Q30.2031 106.343 28.6787 105.796Q27.1543 105.249 25.3086 105.249Q22.7861 105.249 20.7558 106.37Q18.7256 107.491 17.5771 109.467Q16.4287 111.435 16.4287 113.869Q16.4287 116.282 17.5908 118.258Q18.7529 120.227 20.7695 121.361Q22.7861 122.496 25.3086 122.496Q28.665 122.496 30.8799 120.705L30.8799 113.958ZM46.8364 123.809Q43.9516 123.809 41.6274 122.51Q39.3032 121.211 37.9701 118.941Q36.644 116.672 36.644 113.869Q36.644 111.073 37.9701 108.804Q39.3032 106.534 41.6274 105.235Q43.9516 103.93 46.8364 103.93Q49.7211 103.93 52.0453 105.222Q54.3696 106.507 55.6957 108.776Q57.0287 111.046 57.0287 113.869Q57.0287 116.699 55.6957 118.969Q54.3696 121.238 52.0453 122.523Q49.7211 123.809 46.8364 123.809ZM46.8364 122.496Q49.3041 122.496 51.2865 121.375Q53.2758 120.254 54.4242 118.285Q55.5727 116.31 55.5727 113.869Q55.5727 111.435 54.4242 109.467Q53.2758 107.491 51.2865 106.37Q49.3041 105.249 46.8364 105.249Q44.3754 105.249 42.3725 106.37Q40.3696 107.491 39.2211 109.467Q38.0727 111.435 38.0727 113.869Q38.0727 116.31 39.2211 118.285Q40.3696 120.254 42.3725 121.375Q44.3754 122.496 46.8364 122.496ZM61.9879 104.073L63.4166 104.073L63.4166 122.387L74.6959 122.387L74.6959 123.672L61.9879 123.672L61.9879 104.073ZM78.3679 104.073L86.1198 104.073Q89.1755 104.073 91.5407 105.331Q93.9059 106.589 95.2184 108.817Q96.5378 111.046 96.5378 113.869Q96.5378 116.699 95.2184 118.928Q93.9059 121.149 91.5407 122.414Q89.1755 123.672 86.1198 123.672L78.3679 123.672L78.3679 104.073ZM86.0104 122.387Q88.7243 122.387 90.7956 121.307Q92.8669 120.227 93.988 118.299Q95.1091 116.364 95.1091 113.869Q95.1091 111.381 93.988 109.453Q92.8669 107.518 90.7956 106.438Q88.7243 105.358 86.0104 105.358L79.7966 105.358L79.7966 122.387L86.0104 122.387ZM115.017 122.387L115.017 123.672L101.496 123.672L101.496 104.073L114.6 104.073L114.6 105.358L102.925 105.358L102.925 113.09L113.363 113.09L113.363 114.348L102.925 114.348L102.925 122.387L115.017 122.387ZM136.183 104.073L136.183 123.672L135.007 123.672L121.657 106.65L121.657 123.672L120.228 123.672L120.228 104.073L121.431 104.073L134.761 121.095L134.761 104.073L136.183 104.073ZM163.819 123.672L159.144 117.123Q158.111 117.26 157.243 117.26L151.645 117.26L151.645 123.672L150.216 123.672L150.216 104.073L157.243 104.073Q160.935 104.073 163.033 105.823Q165.139 107.573 165.139 110.677Q165.139 113.001 163.949 114.587Q162.76 116.166 160.545 116.809L165.446 123.672L163.819 123.672ZM157.243 116.002Q160.381 116.002 162.028 114.614Q163.683 113.227 163.683 110.677Q163.683 108.134 162.028 106.746Q160.381 105.358 157.243 105.358L151.645 105.358L151.645 116.002L157.243 116.002ZM178.046 123.809Q174.32 123.809 172.263 121.655Q170.205 119.502 170.205 115.352L170.205 104.073L171.634 104.073L171.634 115.298Q171.634 118.914 173.281 120.705Q174.935 122.496 178.073 122.496Q181.183 122.496 182.831 120.705Q184.485 118.914 184.485 115.298L184.485 104.073L185.914 104.073L185.914 115.352Q185.914 119.502 183.843 121.655Q181.771 123.809 178.046 123.809ZM197.727 123.809Q195.574 123.809 193.626 123.07Q191.684 122.325 190.591 121.149L191.233 120.09Q192.272 121.177 194.022 121.867Q195.772 122.551 197.7 122.551Q200.503 122.551 201.931 121.491Q203.36 120.425 203.36 118.716Q203.36 117.396 202.601 116.617Q201.843 115.831 200.721 115.414Q199.607 114.99 197.7 114.546Q195.547 114.013 194.241 113.507Q192.942 113.001 192.033 111.955Q191.124 110.902 191.124 109.139Q191.124 107.71 191.876 106.52Q192.635 105.331 194.186 104.634Q195.745 103.93 198.069 103.93Q199.689 103.93 201.255 104.408Q202.827 104.887 203.975 105.693L203.442 106.842Q202.266 106.035 200.851 105.618Q199.436 105.194 198.069 105.194Q195.348 105.194 193.947 106.288Q192.553 107.375 192.553 109.111Q192.553 110.431 193.304 111.217Q194.063 111.996 195.178 112.42Q196.299 112.837 198.233 113.309Q200.387 113.842 201.672 114.348Q202.964 114.853 203.873 115.879Q204.789 116.897 204.789 118.634Q204.789 120.062 204.016 121.238Q203.244 122.414 201.644 123.111Q200.052 123.809 197.727 123.809Z" fill-rule="evenodd" fill="#FEDA6A"/>
	</g>
	<g filter="url(#filter_12_11_dd)">
		<g clip-path="url(#clip12_11)">
			<path id="path" d="M140 9.88107L121.667 27.0429L107 9.88107L92.3335 27.0429L74 9.88107L74 54.5019L140 54.5019L140 9.88107ZM81.3335 75.0961L132.667 75.0961C134.692 75.0961 136.42 74.4259 137.852 73.0855C139.284 71.7451 140 70.127 140 68.2314L140 61.3666L74 61.3666L74 68.2314C74 70.127 74.7158 71.7451 76.1479 73.0855C77.5796 74.4259 79.3081 75.0961 81.3335 75.0961Z" fill-rule="nonzero" fill="#FEDA6A"/>
		</g>
	</g>
</svg>
